<?xml version="1.0" encoding="UTF-8" standalone="no"?>
<svg
   id="Ebene_3"
   viewBox="0 0 737.01001 289.71698"
   version="1.1"
   sodipodi:docname="INF.svg"
   inkscape:export-filename="INF.png"
   inkscape:export-xdpi="96"
   inkscape:export-ydpi="96"
   inkscape:version="1.4.2 (ebf0e940d0, 2025-05-08)"
   width="737.01001"
   height="289.71698"
   xmlns:inkscape="http://www.inkscape.org/namespaces/inkscape"
   xmlns:sodipodi="http://sodipodi.sourceforge.net/DTD/sodipodi-0.dtd"
   xmlns="http://www.w3.org/2000/svg"
   xmlns:svg="http://www.w3.org/2000/svg">
  <sodipodi:namedview
     id="namedview19"
     pagecolor="#505050"
     bordercolor="#ffffff"
     borderopacity="1"
     inkscape:showpageshadow="0"
     inkscape:pageopacity="0"
     inkscape:pagecheckerboard="1"
     inkscape:deskcolor="#505050"
     inkscape:zoom="0.56990794"
     inkscape:cx="482.53408"
     inkscape:cy="308.82181"
     inkscape:window-width="1920"
     inkscape:window-height="1047"
     inkscape:window-x="0"
     inkscape:window-y="0"
     inkscape:window-maximized="1"
     inkscape:current-layer="Ebene_3">
    <inkscape:page
       x="0"
       y="0"
       width="737.01001"
       height="289.71698"
       id="page1"
       margin="0"
       bleed="0" />
  </sodipodi:namedview>
  <defs
     id="defs1">
    <style
       id="style1">.cls-1{fill:#ffe300;}.cls-2{fill:#707173;}</style>
  </defs>
  <g
     id="g1"
     transform="matrix(1.2660139,0,0,1.2660139,-1.5398618,-82.987206)">
    <rect
       class="cls-1"
       x="1.2163072"
       y="65.549995"
       width="228.89999"
       height="228.89999"
       id="rect1" />
    <path
       d="M 212.94631,108.47 H 87.056311 l 10.35,20.7 c 2.42,4.85 7.379999,7.91 12.799999,7.91 h 102.75 c 1.58,0 2.86,-1.28 2.86,-2.86 v -22.89 c 0,-1.58 -1.28,-2.86 -2.86,-2.86 z"
       id="path1" />
    <path
       d="m 18.386311,108.47 h 68.67 l -10.35,-20.7 c -2.42,-4.85 -7.38,-7.91 -12.8,-7.91 h -45.52 c -1.58,0 -2.86,1.28 -2.86,2.86 v 22.89 c 0,1.58 1.28,2.86 2.86,2.86 z"
       id="path2" />
    <path
       d="m 212.94631,251.53 h -68.67 l 10.35,20.7 c 2.42,4.85 7.38,7.91 12.8,7.91 h 45.52 c 1.58,0 2.86,-1.28 2.86,-2.86 v -22.89 c 0,-1.58 -1.28,-2.86 -2.86,-2.86 z"
       id="path3" />
    <path
       d="M 18.386311,251.53 H 144.27631 l -10.35,-20.7 c -2.42,-4.85 -7.38,-7.91 -12.8,-7.91 H 18.376311 c -1.58,0 -2.86,1.28 -2.86,2.86 v 22.89 c 0,1.58 1.28,2.86 2.86,2.86 z"
       id="path4" />
    <path
       d="m 212.94631,180 h -97.28 l 10.35,-20.7 c 2.42,-4.85 7.38,-7.91 12.8,-7.91 h 74.13 c 1.58,0 2.86,1.28 2.86,2.86 v 22.89 c 0,1.58 -1.28,2.86 -2.86,2.86 z"
       id="path5" />
    <path
       d="m 18.386311,180 h 97.279999 l -10.35,20.7 c -2.42,4.85 -7.379999,7.91 -12.799999,7.91 h -74.13 c -1.58,0 -2.86,-1.28 -2.86,-2.86 v -22.89 c 0,-1.58 1.28,-2.86 2.86,-2.86 z"
       id="path6" />
    <path
       class="cls-2"
       d="m 278.43631,294.45 h -4.45 V 261.9 h 4.45 z"
       id="path7" />
    <path
       class="cls-2"
       d="m 311.42631,294.45 h -5.15 l -13.67,-24.85 v 24.85 h -4.39 V 261.9 h 5.26 l 13.56,25.12 V 261.9 h 4.39 z"
       id="path8" />
    <path
       class="cls-2"
       d="m 341.15631,266.13 h -15.46 v 9.93 h 14.65 v 4.23 h -14.65 v 14.16 h -4.45 V 261.9 h 19.91 z"
       id="path9" />
    <path
       class="cls-2"
       d="m 374.02631,287.13 c 0,1.12 -0.27,2.08 -0.81,2.88 -0.33,0.51 -0.92,1.19 -1.79,2.04 -0.87,0.85 -1.57,1.44 -2.12,1.76 -1.08,0.62 -2.13,0.92 -3.15,0.92 h -8.57 c -0.98,0 -2.01,-0.31 -3.09,-0.92 -0.54,-0.33 -1.26,-0.91 -2.14,-1.76 -0.89,-0.85 -1.49,-1.53 -1.82,-2.04 -0.51,-0.72 -0.76,-1.68 -0.76,-2.88 v -17.85 c 0,-1.19 0.25,-2.15 0.76,-2.88 0.33,-0.51 0.93,-1.19 1.82,-2.06 0.89,-0.87 1.6,-1.46 2.14,-1.79 1.08,-0.61 2.12,-0.92 3.09,-0.92 h 8.57 c 1.01,0 2.06,0.31 3.15,0.92 0.51,0.29 1.19,0.88 2.06,1.76 0.87,0.89 1.48,1.58 1.84,2.09 0.54,0.8 0.81,1.75 0.81,2.88 v 17.85 z m -4.45,-0.05 v -17.69 c 0,-0.18 -0.04,-0.34 -0.11,-0.49 -0.29,-0.51 -0.76,-1.07 -1.41,-1.68 -0.65,-0.61 -1.18,-1.03 -1.57,-1.25 -0.15,-0.07 -0.31,-0.11 -0.49,-0.11 h -8.14 c -0.18,0 -0.34,0.04 -0.49,0.11 -0.51,0.25 -1.16,0.78 -1.95,1.57 -0.79,0.79 -1.19,1.41 -1.19,1.84 v 17.69 c 0,0.36 0.41,0.95 1.22,1.76 0.81,0.81 1.46,1.33 1.93,1.55 0.14,0.07 0.31,0.11 0.49,0.11 h 8.14 c 0.18,0 0.34,-0.04 0.49,-0.11 0.51,-0.25 1.15,-0.76 1.93,-1.52 0.78,-0.76 1.17,-1.36 1.17,-1.79 z"
       id="path10" />
    <path
       class="cls-2"
       d="m 407.76631,294.45 h -4.83 l -7.65,-13.56 h -7.49 v 13.56 h -4.45 V 261.9 h 15.3 c 1.37,0 2.59,0.38 3.63,1.14 0.4,0.29 0.92,0.76 1.57,1.41 0.65,0.65 1.08,1.14 1.3,1.46 0.61,0.94 0.92,1.97 0.92,3.09 v 4.88 c 0,1.08 -0.31,2.1 -0.92,3.04 -0.22,0.33 -0.65,0.81 -1.3,1.46 -0.65,0.65 -1.18,1.12 -1.57,1.41 -0.8,0.58 -1.61,0.9 -2.44,0.98 l 7.92,13.67 z m -6.13,-20.67 v -4.67 c 0,-0.36 -0.02,-0.56 -0.05,-0.6 -0.22,-0.36 -0.63,-0.84 -1.25,-1.44 -0.62,-0.6 -1.08,-0.91 -1.41,-0.95 h -11.12 v 10.52 h 10.8 c 0.43,0 0.98,-0.27 1.65,-0.81 0.67,-0.54 1.11,-1.03 1.33,-1.46 0.04,-0.07 0.05,-0.27 0.05,-0.6 z"
       id="path11" />
    <path
       class="cls-2"
       d="m 444.98631,294.45 h -4.34 v -25.88 l -8.52,17.47 h -2.93 l -8.41,-17.47 v 25.88 h -4.39 V 261.9 h 5.64 l 8.68,17.74 8.73,-17.74 h 5.53 v 32.55 z"
       id="path12" />
    <path
       class="cls-2"
       d="m 479.70631,294.45 h -4.77 l -2.44,-7.27 h -14.11 l -2.5,7.27 h -4.72 l 11.34,-32.55 h 5.86 z m -8.63,-11.44 -5.64,-16.55 -5.64,16.55 z"
       id="path13" />
    <path
       class="cls-2"
       d="m 504.27631,266.13 h -9.28 v 28.32 h -4.45 v -28.32 h -9.28 v -4.23 h 23 v 4.23 z"
       id="path14" />
    <path
       class="cls-2"
       d="m 516.15631,294.45 h -4.45 V 261.9 h 4.45 z"
       id="path15" />
    <path
       class="cls-2"
       d="m 530.80631,276.12 12.69,-14.21 h 5.86 l -14.81,16.27 14.86,16.28 h -5.86 l -12.75,-14.16 h -0.49 v 14.16 h -4.45 v -32.55 h 4.45 v 14.21 h 0.49 z"
       id="path16" />
    <path
       d="m 296.09631,225.15 h -21.81 V 65.55 h 21.81 z"
       id="path17" />
    <path
       d="m 447.70631,225.15 h -25.27 l -67.03,-121.83 v 121.83 h -21.55 V 65.55 h 25.8 l 66.5,123.16 V 65.55 h 21.55 z"
       id="path18" />
    <path
       d="m 583.36631,86.3 h -75.81 v 48.68 h 71.82 v 20.75 h -71.82 v 69.43 h -21.81 V 65.55 h 97.62 z"
       id="path19" />
  </g>
</svg>
