<?xml version="1.0" encoding="UTF-8" standalone="no"?>
<svg
   id="Ebene_5"
   viewBox="0 0 1256.17 360"
   version="1.1"
   sodipodi:docname="INF_Kombiniert.svg"
   inkscape:export-filename="INF_Kombiniert.png"
   inkscape:export-xdpi="96"
   inkscape:export-ydpi="96"
   inkscape:version="1.4.2 (ebf0e940d0, 2025-05-08)"
   xmlns:inkscape="http://www.inkscape.org/namespaces/inkscape"
   xmlns:sodipodi="http://sodipodi.sourceforge.net/DTD/sodipodi-0.dtd"
   xmlns="http://www.w3.org/2000/svg"
   xmlns:svg="http://www.w3.org/2000/svg">
  <sodipodi:namedview
     id="namedview44"
     pagecolor="#ffffff"
     bordercolor="#000000"
     borderopacity="0.25"
     inkscape:showpageshadow="2"
     inkscape:pageopacity="0.0"
     inkscape:pagecheckerboard="0"
     inkscape:deskcolor="#d1d1d1"
     inkscape:zoom="1.4130253"
     inkscape:cx="628.43887"
     inkscape:cy="179.75616"
     inkscape:window-width="1920"
     inkscape:window-height="1047"
     inkscape:window-x="0"
     inkscape:window-y="0"
     inkscape:window-maximized="1"
     inkscape:current-layer="Ebene_5" />
  <defs
     id="defs1">
    <style
       id="style1">.cls-1{fill:#ffe300;}.cls-2{fill:#707173;}</style>
  </defs>
  <rect
     class="cls-1"
     x="74.25"
     y="64.58"
     width="228.9"
     height="228.9"
     id="rect1" />
  <path
     d="M285.99,107.5h-125.89l10.35,20.7c2.42,4.85,7.38,7.91,12.8,7.91h102.75c1.58,0,2.86-1.28,2.86-2.86v-22.89c0-1.58-1.28-2.86-2.86-2.86Z"
     id="path1" />
  <path
     d="M91.42,107.5h68.67l-10.35-20.7c-2.42-4.85-7.38-7.91-12.8-7.91h-45.52c-1.58,0-2.86,1.28-2.86,2.86v22.89c0,1.58,1.28,2.86,2.86,2.86Z"
     id="path2" />
  <path
     d="M285.99,250.56h-68.67l10.35,20.7c2.42,4.85,7.38,7.91,12.8,7.91h45.52c1.58,0,2.86-1.28,2.86-2.86v-22.89c0-1.58-1.28-2.86-2.86-2.86Z"
     id="path3" />
  <path
     d="M91.42,250.56h125.89l-10.35-20.7c-2.42-4.85-7.38-7.91-12.8-7.91h-102.75c-1.58,0-2.86,1.28-2.86,2.86v22.89c0,1.58,1.28,2.86,2.86,2.86Z"
     id="path4" />
  <path
     d="M285.99,179.03h-97.28l10.35-20.7c2.42-4.85,7.38-7.91,12.8-7.91h74.13c1.58,0,2.86,1.28,2.86,2.86v22.89c0,1.58-1.28,2.86-2.86,2.86Z"
     id="path5" />
  <path
     d="M91.42,179.03h97.28l-10.35,20.7c-2.42,4.85-7.38,7.91-12.8,7.91h-74.13c-1.58,0-2.86-1.28-2.86-2.86v-22.89c0-1.58,1.28-2.86,2.86-2.86Z"
     id="path6" />
  <path
     class="cls-2"
     d="M371.41,97.24h-4.83l-7.65-13.56h-7.49v13.56h-4.45v-32.55h15.3c1.37,0,2.59.38,3.63,1.14.4.29.92.76,1.57,1.41.65.65,1.08,1.14,1.3,1.46.61.94.92,1.97.92,3.09v4.88c0,1.08-.31,2.1-.92,3.04-.22.33-.65.81-1.3,1.46-.65.65-1.18,1.12-1.57,1.41-.8.58-1.61.9-2.44.98l7.92,13.67ZM365.28,76.57v-4.67c0-.36-.02-.56-.05-.6-.22-.36-.63-.84-1.25-1.44s-1.08-.91-1.41-.95h-11.12v10.52h10.8c.43,0,.98-.27,1.65-.81.67-.54,1.11-1.03,1.33-1.46.04-.07.05-.27.05-.6Z"
     id="path7" />
  <path
     class="cls-2"
     d="M399.57,97.24h-19.96v-32.55h19.96v4.23h-15.52v9.93h14.65v4.23h-14.65v9.93h15.52v4.23Z"
     id="path8" />
  <path
     class="cls-2"
     d="M431.36,89.97c0,1.16-.25,2.1-.76,2.82-.33.51-.92,1.19-1.79,2.03-.87.85-1.57,1.44-2.12,1.76-1.08.62-2.12.92-3.09.92h-7.27c-1.01,0-2.06-.31-3.15-.92-.54-.33-1.25-.91-2.12-1.76-.87-.85-1.46-1.53-1.79-2.03-.54-.79-.81-1.74-.81-2.82v-25.28h4.45v25.17c0,.36.42.95,1.28,1.76.85.81,1.51,1.33,1.98,1.55.14.07.29.11.43.11h6.73c.18,0,.34-.04.49-.11.47-.22,1.1-.73,1.9-1.55.8-.81,1.19-1.4,1.19-1.76v-25.17h4.45v25.28Z"
     id="path9" />
  <path
     class="cls-2"
     d="M461.41,68.92h-9.28v28.32h-4.45v-28.32h-9.28v-4.23h23v4.23Z"
     id="path10" />
  <path
     class="cls-2"
     d="M488.59,97.24h-19.64v-32.55h4.45v28.32h15.19v4.23Z"
     id="path11" />
  <path
     class="cls-2"
     d="M500.63,97.24h-4.45v-32.55h4.45v32.55Z"
     id="path12" />
  <path
     class="cls-2"
     d="M533.13,97.24h-5.15l-13.67-24.85v24.85h-4.39v-32.55h5.26l13.56,25.12v-25.12h4.39v32.55Z"
     id="path13" />
  <path
     class="cls-2"
     d="M567.36,97.24h-4.34c-.04-.25-.11-.61-.22-1.06-.11-.45-.16-.73-.16-.84-.11.07-.33.25-.65.54-.33.29-.58.5-.76.62-.18.13-.42.29-.73.49-.31.2-.62.33-.92.41-.31.07-.64.11-1,.11h-8.35c-1.01,0-2.06-.31-3.15-.92-.54-.33-1.25-.91-2.12-1.76-.87-.85-1.46-1.53-1.79-2.03-.54-.79-.81-1.75-.81-2.88v-17.85c0-1.12.27-2.08.81-2.88.36-.51.98-1.2,1.84-2.09.87-.89,1.55-1.47,2.06-1.76,1.08-.61,2.13-.92,3.15-.92h8.35c2.21,0,4.45,1.48,6.73,4.45.43.54.94,1.45,1.52,2.71l-4.34,1.25-.54-1.08c-.29-.54-.74-1.11-1.36-1.71-.62-.6-1.16-1.02-1.63-1.27-.14-.07-.33-.11-.54-.11h-7.97c-.18,0-.34.04-.49.11-.43.22-.99.64-1.66,1.27-.67.63-1.13,1.2-1.38,1.71-.07.15-.11.31-.11.49v17.52c0,.43.42,1.06,1.25,1.87.83.81,1.5,1.35,2.01,1.6.07.04.22.05.43.05h7.81c.18,0,.34-.04.49-.11.51-.25,1.17-.79,1.98-1.6.81-.81,1.22-1.44,1.22-1.87v-6.73h-7.43v-4.23h11.88v10.9c0,1.27.31,3.8.92,7.6Z"
     id="path14" />
  <path
     class="cls-2"
     d="M596.17,97.24h-19.96v-32.55h19.96v4.23h-15.52v9.93h14.65v4.23h-14.65v9.93h15.52v4.23Z"
     id="path15" />
  <path
     class="cls-2"
     d="M628.88,97.24h-5.15l-13.67-24.85v24.85h-4.39v-32.55h5.26l13.56,25.12v-25.12h4.39v32.55Z"
     id="path16" />
  <path
     class="cls-2"
     d="M672.06,89.97c0,1.16-.25,2.1-.76,2.82-.33.51-.92,1.19-1.79,2.03-.87.85-1.57,1.44-2.12,1.76-1.08.62-2.12.92-3.09.92h-7.27c-1.01,0-2.06-.31-3.15-.92-.54-.33-1.25-.91-2.12-1.76-.87-.85-1.46-1.53-1.79-2.03-.54-.79-.81-1.74-.81-2.82v-25.28h4.45v25.17c0,.36.42.95,1.28,1.76.85.81,1.51,1.33,1.98,1.55.14.07.29.11.43.11h6.73c.18,0,.34-.04.49-.11.47-.22,1.1-.73,1.9-1.55.8-.81,1.19-1.4,1.19-1.76v-25.17h4.45v25.28Z"
     id="path17" />
  <path
     class="cls-2"
     d="M704.12,97.24h-5.15l-13.67-24.85v24.85h-4.39v-32.55h5.26l13.56,25.12v-25.12h4.39v32.55Z"
     id="path18" />
  <path
     class="cls-2"
     d="M717.68,97.24h-4.45v-32.55h4.45v32.55Z"
     id="path19" />
  <path
     class="cls-2"
     d="M751.21,64.69l-10.8,32.55h-5.86l-10.8-32.55h4.72l9,27.78,9.01-27.78h4.72Z"
     id="path20" />
  <path
     class="cls-2"
     d="M777.52,97.24h-19.96v-32.55h19.96v4.23h-15.52v9.93h14.65v4.23h-14.65v9.93h15.52v4.23Z"
     id="path21" />
  <path
     class="cls-2"
     d="M811.1,97.24h-4.83l-7.65-13.56h-7.49v13.56h-4.45v-32.55h15.3c1.37,0,2.59.38,3.63,1.14.4.29.92.76,1.57,1.41.65.65,1.08,1.14,1.3,1.46.61.94.92,1.97.92,3.09v4.88c0,1.08-.31,2.1-.92,3.04-.22.33-.65.81-1.3,1.46-.65.65-1.18,1.12-1.57,1.41-.8.58-1.61.9-2.44.98l7.92,13.67ZM804.97,76.57v-4.67c0-.36-.02-.56-.05-.6-.22-.36-.63-.84-1.25-1.44s-1.08-.91-1.41-.95h-11.12v10.52h10.8c.43,0,.98-.27,1.65-.81.67-.54,1.11-1.03,1.33-1.46.04-.07.05-.27.05-.6Z"
     id="path22" />
  <path
     class="cls-2"
     d="M843.27,89.92c0,1.19-.25,2.15-.76,2.88-.33.51-.93,1.19-1.82,2.03-.89.85-1.6,1.44-2.14,1.76-1.08.62-2.12.92-3.09.92h-9.06c-2.28,0-4.52-1.46-6.73-4.39-.29-.4-.78-1.34-1.46-2.82l4.29-1.14.49.98c.33.58.8,1.17,1.44,1.76s1.18,1.02,1.66,1.27c.14.07.31.11.49.11h8.68c.14,0,.29-.04.43-.11.54-.25,1.2-.76,1.98-1.52.78-.76,1.17-1.36,1.17-1.79v-3.31c0-.43-.13-.83-.38-1.19-.25-.36-.54-.58-.87-.65l-14.76-3.8c-1.19-.33-2.13-1.01-2.82-2.06-.69-1.05-1.03-2.21-1.03-3.47v-3.31c0-1.19.25-2.15.76-2.88.33-.51.93-1.19,1.82-2.06.89-.87,1.6-1.46,2.14-1.79,1.08-.61,2.12-.92,3.09-.92h7.97c2.24,0,4.47,1.46,6.67,4.39.4.47.9,1.39,1.52,2.77l-4.34,1.25-.54-1.08c-.29-.54-.76-1.12-1.41-1.74-.65-.61-1.21-1.05-1.68-1.3-.11-.04-.24-.05-.38-.05h-7.54c-.11,0-.27.04-.49.11-.47.22-1.11.73-1.93,1.55-.81.81-1.22,1.4-1.22,1.76v3.09c0,.4.12.77.35,1.11.23.34.51.55.84.62l14.7,3.91c1.19.33,2.15,1,2.88,2.03.72,1.03,1.08,2.16,1.08,3.39v3.69Z"
     id="path23" />
  <path
     class="cls-2"
     d="M856.02,97.24h-4.45v-32.55h4.45v32.55Z"
     id="path24" />
  <path
     class="cls-2"
     d="M886.34,68.92h-9.28v28.32h-4.45v-28.32h-9.28v-4.23h23v4.23Z"
     id="path25" />
  <path
     class="cls-2"
     d="M916.78,64.69l-10.96,18.72v13.83h-4.45v-13.83l-10.9-18.72h4.88l8.3,14.21s.64-1.18,2.03-3.55c1.39-2.37,2.79-4.73,4.2-7.08l2.06-3.58h4.83Z"
     id="path26" />
  <path
     class="cls-2"
     d="M366.91,120.82h-15.46v9.93h14.65v4.23h-14.65v14.16h-4.45v-32.55h19.91v4.23Z"
     id="path27" />
  <path
     class="cls-2"
     d="M399.13,149.14h-4.77l-2.44-7.27h-14.11l-2.5,7.27h-4.72l11.34-32.55h5.86l11.34,32.55ZM390.51,137.69l-5.64-16.55-5.64,16.55h11.28Z"
     id="path28" />
  <path
     class="cls-2"
     d="M410.36,130.81l12.69-14.21h5.86l-14.81,16.27,14.86,16.27h-5.86l-12.75-14.16h-.49v14.16h-4.45v-32.55h4.45v14.21h.49Z"
     id="path29" />
  <path
     class="cls-2"
     d="M457.78,141.87c0,1.16-.25,2.1-.76,2.82-.33.51-.92,1.19-1.79,2.03-.87.85-1.57,1.44-2.12,1.76-1.08.62-2.12.92-3.09.92h-7.27c-1.01,0-2.06-.31-3.15-.92-.54-.33-1.25-.91-2.12-1.76-.87-.85-1.46-1.53-1.79-2.03-.54-.79-.81-1.74-.81-2.82v-25.28h4.45v25.17c0,.36.42.95,1.28,1.76.85.81,1.51,1.33,1.98,1.55.14.07.29.11.43.11h6.73c.18,0,.34-.04.49-.11.47-.22,1.1-.73,1.9-1.55.8-.81,1.19-1.4,1.19-1.76v-25.17h4.45v25.28Z"
     id="path30" />
  <path
     class="cls-2"
     d="M486.26,149.14h-19.64v-32.55h4.45v28.32h15.19v4.23Z"
     id="path31" />
  <path
     class="cls-2"
     d="M509.58,120.82h-9.28v28.32h-4.45v-28.32h-9.28v-4.23h23v4.23Z"
     id="path32" />
  <path
     class="cls-2"
     d="M541.05,149.14h-4.77l-2.44-7.27h-14.11l-2.5,7.27h-4.72l11.34-32.55h5.86l11.34,32.55ZM524.72,112.31h-4.5v-4.83h4.5v4.83ZM532.42,137.69l-5.64-16.55-5.64,16.55h11.28ZM533.45,112.31h-4.5v-4.83h4.5v4.83Z"
     id="path33" />
  <path
     class="cls-2"
     d="M565.3,120.82h-9.28v28.32h-4.45v-28.32h-9.28v-4.23h23v4.23Z"
     id="path34" />
  <path
     d="M361.88,293.42h-14.68v-107.4h14.68v107.4Z"
     id="path35" />
  <path
     d="M465.88,293.42h-17l-45.11-81.98v81.98h-14.5v-107.4h17.36l44.75,82.88v-82.88h14.5v107.4Z"
     id="path36" />
  <path
     d="M559.14,199.99h-51.02v32.76h48.33v13.96h-48.33v46.72h-14.68v-107.4h65.69v13.96Z"
     id="path37" />
  <path
     d="M652.22,269.26c0,3.7-.9,6.86-2.68,9.49-1.07,1.67-3.04,3.91-5.91,6.71-2.86,2.81-5.19,4.74-6.98,5.82-3.58,2.03-7.04,3.04-10.38,3.04h-28.28c-3.22,0-6.62-1.01-10.2-3.04-1.79-1.07-4.15-3.01-7.07-5.82-2.93-2.8-4.92-5.04-6-6.71-1.67-2.39-2.51-5.55-2.51-9.49v-58.89c0-3.94.83-7.1,2.51-9.49,1.07-1.67,3.07-3.94,6-6.8,2.92-2.86,5.28-4.83,7.07-5.91,3.58-2.03,6.98-3.04,10.2-3.04h28.28c3.34,0,6.8,1.02,10.38,3.04,1.67.96,3.94,2.89,6.8,5.82,2.86,2.93,4.89,5.22,6.09,6.89,1.79,2.63,2.68,5.79,2.68,9.49v58.89ZM637.54,269.08v-58.35c0-.6-.12-1.13-.36-1.61-.96-1.67-2.51-3.52-4.65-5.55-2.15-2.03-3.88-3.4-5.19-4.12-.48-.24-1.02-.36-1.61-.36h-26.85c-.6,0-1.14.12-1.61.36-1.67.84-3.82,2.57-6.44,5.19-2.63,2.63-3.94,4.65-3.94,6.09v58.35c0,1.19,1.34,3.13,4.03,5.82,2.69,2.69,4.8,4.39,6.35,5.1.48.24,1.01.36,1.61.36h26.85c.6,0,1.13-.12,1.61-.36,1.67-.83,3.79-2.51,6.35-5.01,2.56-2.51,3.85-4.48,3.85-5.91Z"
     id="path38" />
  <path
     d="M752.28,293.42h-15.93l-25.24-44.75h-24.7v44.75h-14.68v-107.4h50.48c4.53,0,8.53,1.25,11.99,3.76,1.31.96,3.04,2.51,5.19,4.65s3.58,3.76,4.3,4.83c2.03,3.1,3.04,6.51,3.04,10.2v16.11c0,3.58-1.01,6.92-3.04,10.02-.72,1.07-2.15,2.69-4.3,4.83s-3.88,3.7-5.19,4.65c-2.63,1.91-5.31,2.98-8.05,3.22l26.13,45.11ZM732.05,225.22v-15.39c0-1.19-.06-1.85-.18-1.97-.72-1.19-2.09-2.77-4.12-4.74-2.03-1.97-3.58-3.01-4.65-3.13h-36.7v34.73h35.62c1.43,0,3.25-.9,5.46-2.69,2.21-1.79,3.67-3.4,4.39-4.83.12-.24.18-.9.18-1.97Z"
     id="path39" />
  <path
     d="M864.87,293.42h-14.32v-85.38l-28.1,57.64h-9.67l-27.75-57.64v85.38h-14.5v-107.4h18.62l28.64,58.53,28.82-58.53h18.26v107.4Z"
     id="path40" />
  <path
     d="M978.12,293.42h-15.75l-8.05-23.99h-46.54l-8.23,23.99h-15.57l37.41-107.4h19.33l37.41,107.4ZM949.66,255.65l-18.62-54.59-18.62,54.59h37.23Z"
     id="path41" />
  <path
     d="M1053.39,199.99h-30.61v93.44h-14.68v-93.44h-30.61v-13.96h75.9v13.96Z"
     id="path42" />
  <path
     d="M1088.69,293.42h-14.68v-107.4h14.68v107.4Z"
     id="path43" />
  <path
     d="M1128.86,232.92l41.89-46.9h19.33l-48.87,53.7,49.05,53.7h-19.33l-42.07-46.72h-1.61v46.72h-14.68v-107.4h14.68v46.9h1.61Z"
     id="path44" />
</svg>
